<?xml version="1.0" encoding="UTF-8" standalone="no"?><!DOCTYPE svg PUBLIC "-//W3C//DTD SVG 1.1//EN" "http://www.w3.org/Graphics/SVG/1.1/DTD/svg11.dtd"><svg width="100%" height="100%" viewBox="0 0 110 32" version="1.1" xmlns="http://www.w3.org/2000/svg" xmlns:xlink="http://www.w3.org/1999/xlink" xml:space="preserve" xmlns:serif="http://www.serif.com/" style="fill-rule:evenodd;clip-rule:evenodd;stroke-linejoin:round;stroke-miterlimit:2;"><rect id="Arduino" x="0" y="0" width="109.898" height="32" style="fill:none;"/><clipPath id="_clip1"><rect x="0" y="0" width="109.898" height="32"/></clipPath><g clip-path="url(#_clip1)"><path d="M109.898,3.2c-0,-1.766 -1.434,-3.2 -3.2,-3.2l-103.498,0c-1.766,0 -3.2,1.434 -3.2,3.2l-0,25.6c-0,1.766 1.434,3.2 3.2,3.2l103.498,0c1.766,0 3.2,-1.434 3.2,-3.2l-0,-25.6Z" style="fill:#00979c;"/><text x="39.086px" y="22.25px" style="font-family:'GoogleSansText-Bold', 'Google Sans Text', sans-serif;font-weight:700;font-size:17.63px;fill:#fff;">A<tspan x="50.704px 56.821px 67.24px 77.254px 81.362px 91.375px " y="22.25px 22.25px 22.25px 22.25px 22.25px 22.25px ">rduino</tspan></text><clipPath id="_clip2"><rect id="arduino_logo_icon_170518.svg" x="7.599" y="3.369" width="25.262" height="25.262"/></clipPath><g clip-path="url(#_clip2)"><path d="M26.374,21.96c-1.613,0 -2.999,-0.552 -4.207,-1.658c-0.75,-0.686 -1.368,-1.529 -1.938,-2.404c-0.568,0.868 -1.187,1.717 -1.937,2.404c-1.305,1.196 -2.8,1.735 -4.579,1.648c-3.37,-0.013 -6.114,-2.679 -6.114,-5.955c0,-3.284 2.759,-5.955 6.158,-5.955c1.777,-0.031 3.496,0.644 4.776,1.877c0.652,0.608 1.203,1.311 1.705,2.047c0.502,-0.736 1.053,-1.44 1.705,-2.047c1.281,-1.233 2.999,-1.908 4.776,-1.877c3.392,-0 6.158,2.671 6.158,5.955c-0,3.275 -2.744,5.942 -6.122,5.956c-0.122,0.006 -0.243,0.009 -0.365,0.008l-0.016,0.001Zm-4.91,-6.044c0.673,1.092 1.326,2.108 2.122,2.838c0.898,0.823 1.845,1.162 3.069,1.105l0.055,-0.002c2.232,0 4.048,-1.737 4.048,-3.852c0,-2.116 -1.816,-3.853 -4.048,-3.853c-1.246,-0.028 -2.451,0.446 -3.344,1.315c-0.72,0.669 -1.315,1.527 -1.901,2.46l-0.001,-0.011Zm-7.707,-3.774c-2.232,0 -4.048,1.737 -4.048,3.852c-0,2.116 1.815,3.853 4.048,3.853l0.055,0.001c1.224,0.065 2.171,-0.273 3.069,-1.105c0.795,-0.729 1.449,-1.736 2.122,-2.837c-0.588,-0.931 -1.182,-1.79 -1.901,-2.46c-0.963,-0.896 -2.027,-1.314 -3.345,-1.314l-0,0.01Zm13.232,3.09l0,-1.14l-1.185,-0l-0,1.14l-1.14,-0l-0,1.181l1.14,-0l-0,1.149l1.186,-0l0,-1.149l1.14,-0l0,-1.181l-1.14,-0m-14.948,-0.021l3.747,-0l-0,1.217l-3.747,-0l0,-1.217Z" style="fill:#fff;fill-rule:nonzero;"/></g></g></svg>