<?xml version="1.0" encoding="UTF-8" standalone="no"?><!DOCTYPE svg PUBLIC "-//W3C//DTD SVG 1.1//EN" "http://www.w3.org/Graphics/SVG/1.1/DTD/svg11.dtd"><svg width="100%" height="100%" viewBox="0 0 63 32" version="1.1" xmlns="http://www.w3.org/2000/svg" xmlns:xlink="http://www.w3.org/1999/xlink" xml:space="preserve" xmlns:serif="http://www.serif.com/" style="fill-rule:evenodd;clip-rule:evenodd;stroke-linejoin:round;stroke-miterlimit:2;"><rect id="C" x="0" y="0" width="62.878" height="32" style="fill:none;"/><path d="M62.878,3.2c-0,-1.766 -1.434,-3.2 -3.2,-3.2l-56.478,0c-1.766,0 -3.2,1.434 -3.2,3.2l0,25.6c0,1.766 1.434,3.2 3.2,3.2l56.478,0c1.766,0 3.2,-1.434 3.2,-3.2l-0,-25.6Z" style="fill:#659bd4;"/><text x="39.586px" y="22.25px" style="font-family:'GoogleSansText-Bold', 'Google Sans Text', sans-serif;font-weight:700;font-size:17.63px;fill:#fff;">C</text><path d="M28.501,10.505l0.053,-0.036c-0.106,-0.195 -0.265,-0.372 -0.425,-0.46l-8.555,-4.924c-0.141,-0.089 -0.336,-0.124 -0.549,-0.124c-0.212,-0 -0.407,0.053 -0.549,0.124l-8.502,4.941c-0.301,0.178 -0.513,0.62 -0.513,0.957l-0,9.866c-0,0.194 0.035,0.407 0.159,0.602l-0.035,0.017c0.088,0.142 0.212,0.266 0.336,0.337l8.538,4.942c0.141,0.088 0.336,0.124 0.549,0.124c0.212,-0 0.407,-0.053 0.549,-0.124l8.502,-4.942c0.301,-0.177 0.513,-0.62 0.513,-0.956l0,-9.884c0.018,-0.142 0,-0.301 -0.071,-0.46Zm-9.476,9.741c1.612,0 3.029,-0.885 3.773,-2.196l2.285,1.346c-1.205,2.09 -3.472,3.507 -6.058,3.507c-3.861,0 -6.996,-3.135 -6.996,-6.996c-0,-3.861 3.135,-6.996 6.996,-6.996c2.604,-0 4.871,1.434 6.076,3.542l-2.303,1.328c-0.744,-1.328 -2.161,-2.214 -3.773,-2.214c-2.391,0 -4.339,1.949 -4.339,4.34c-0,2.391 1.948,4.339 4.339,4.339Z" style="fill:#fff;fill-rule:nonzero;"/></svg>