<?xml version="1.0" encoding="UTF-8" standalone="no"?><!DOCTYPE svg PUBLIC "-//W3C//DTD SVG 1.1//EN" "http://www.w3.org/Graphics/SVG/1.1/DTD/svg11.dtd"><svg width="100%" height="100%" viewBox="0 0 101 32" version="1.1" xmlns="http://www.w3.org/2000/svg" xmlns:xlink="http://www.w3.org/1999/xlink" xml:space="preserve" xmlns:serif="http://www.serif.com/" style="fill-rule:evenodd;clip-rule:evenodd;stroke-linejoin:round;stroke-miterlimit:2;"><rect id="Email" x="0" y="0" width="100.724" height="32" style="fill:none;"/><clipPath id="_clip1"><rect x="0" y="0" width="100.724" height="32"/></clipPath><g clip-path="url(#_clip1)"><path d="M100.724,3.2c0,-1.766 -1.434,-3.2 -3.2,-3.2l-94.324,0c-1.766,0 -3.2,1.434 -3.2,3.2l-0,25.6c-0,1.766 1.434,3.2 3.2,3.2l94.324,0c1.766,0 3.2,-1.434 3.2,-3.2l0,-25.6Z" style="fill:#f05537;"/><text x="39.586px" y="22.25px" style="font-family:'GoogleSansText-Bold', 'Google Sans Text', sans-serif;font-weight:700;font-size:17.63px;fill:#fff;">E<tspan x="49.688px 57.41px 72.236px 81.915px 86.023px " y="22.25px 22.25px 22.25px 22.25px 22.25px ">-mail</tspan></text><g><path d="M29.388,21.167c-0,0.446 -0.126,0.859 -0.327,1.223l-6.425,-7.189l6.356,-5.56c0.247,0.392 0.396,0.853 0.396,1.351l-0,10.175Zm-10.175,-4.66l8.844,-7.738c-0.363,-0.199 -0.772,-0.321 -1.213,-0.321l-15.262,0c-0.441,0 -0.85,0.122 -1.212,0.321l8.843,7.738Zm2.466,-0.469l-2.047,1.793c-0.12,0.104 -0.269,0.156 -0.419,0.156c-0.15,0 -0.299,-0.052 -0.418,-0.156l-2.048,-1.793l-6.506,7.281c0.39,0.245 0.847,0.391 1.341,0.391l15.262,0c0.495,0 0.952,-0.146 1.342,-0.391l-6.507,-7.281Zm-12.245,-6.397c-0.247,0.392 -0.396,0.853 -0.396,1.351l0,10.175c0,0.446 0.125,0.859 0.327,1.223l6.424,-7.19l-6.355,-5.559Z" style="fill:#fff;fill-rule:nonzero;"/></g></g></svg>