<?xml version="1.0" encoding="UTF-8" standalone="no"?><!DOCTYPE svg PUBLIC "-//W3C//DTD SVG 1.1//EN" "http://www.w3.org/Graphics/SVG/1.1/DTD/svg11.dtd"><svg width="100%" height="100%" viewBox="0 0 89 32" version="1.1" xmlns="http://www.w3.org/2000/svg" xmlns:xlink="http://www.w3.org/1999/xlink" xml:space="preserve" xmlns:serif="http://www.serif.com/" style="fill-rule:evenodd;clip-rule:evenodd;stroke-linejoin:round;stroke-miterlimit:2;"><rect id="Excel" x="0" y="0" width="88.997" height="32" style="fill:none;"/><clipPath id="_clip1"><rect x="0" y="0" width="88.997" height="32"/></clipPath><g clip-path="url(#_clip1)"><path d="M88.997,3.2c0,-1.766 -1.434,-3.2 -3.2,-3.2l-82.597,0c-1.766,0 -3.2,1.434 -3.2,3.2l-0,25.6c-0,1.766 1.434,3.2 3.2,3.2l82.597,0c1.766,0 3.2,-1.434 3.2,-3.2l0,-25.6Z" style="fill:#21a366;"/><text x="37.544px" y="22.25px" style="font-family:'GoogleSansText-Bold', 'Google Sans Text', sans-serif;font-weight:700;font-size:17.63px;fill:#fff;">E<tspan x="47.469px 56.161px 65.522px 75.13px " y="22.25px 22.25px 22.25px 22.25px ">xcel</tspan></text><path d="M23.224,21.383l-2.153,-0l-2.369,-4.091l-2.368,4.091l-2.153,-0l3.445,-5.383l-3.445,-5.383l2.153,0l2.368,4.091l2.369,-4.091l2.153,0l-3.445,5.383m6.459,-9.689l-15.072,-0c-1.195,-0 -2.153,0.958 -2.153,2.153l0,15.072c0,1.181 0.972,2.153 2.153,2.153l15.072,0c1.181,0 2.153,-0.972 2.153,-2.153l0,-15.072c0,-1.195 -0.968,-2.153 -2.153,-2.153Z" style="fill:#fff;fill-rule:nonzero;"/></g></svg>