<?xml version="1.0" encoding="UTF-8" standalone="no"?><!DOCTYPE svg PUBLIC "-//W3C//DTD SVG 1.1//EN" "http://www.w3.org/Graphics/SVG/1.1/DTD/svg11.dtd"><svg width="100%" height="100%" viewBox="0 0 87 32" version="1.1" xmlns="http://www.w3.org/2000/svg" xmlns:xlink="http://www.w3.org/1999/xlink" xml:space="preserve" xmlns:serif="http://www.serif.com/" style="fill-rule:evenodd;clip-rule:evenodd;stroke-linejoin:round;stroke-miterlimit:2;"><rect id="Java" x="0" y="0" width="86.995" height="32" style="fill:none;"/><clipPath id="_clip1"><rect x="0" y="0" width="86.995" height="32"/></clipPath><g clip-path="url(#_clip1)"><path d="M86.995,3.2c0,-1.766 -1.433,-3.2 -3.2,-3.2l-80.595,0c-1.766,0 -3.2,1.434 -3.2,3.2l-0,25.6c-0,1.766 1.434,3.2 3.2,3.2l80.595,0c1.767,0 3.2,-1.434 3.2,-3.2l0,-25.6Z" style="fill:#0779c0;"/><text x="37.544px" y="22.25px" style="font-family:'GoogleSansText-Bold', 'Google Sans Text', sans-serif;font-weight:700;font-size:17.63px;fill:#fff;">J<tspan x="46.888px 56.39px 65.875px " y="22.25px 22.25px 22.25px ">ava</tspan></text><path d="M15.856,20.951c0,-0 -0.786,0.457 0.56,0.612c1.631,0.186 2.465,0.159 4.262,-0.181c-0,0 0.473,0.296 1.133,0.553c-4.03,1.726 -9.119,-0.1 -5.955,-0.984Zm-0.492,-2.253c-0,-0 -0.882,0.653 0.465,0.792c1.742,0.18 3.118,0.195 5.499,-0.264c0,0 0.329,0.334 0.846,0.516c-4.87,1.425 -10.295,0.113 -6.81,-1.044Z" style="fill:#fff;fill-rule:nonzero;"/><path d="M19.514,14.875c0.993,1.144 -0.26,2.172 -0.26,2.172c-0,-0 2.52,-1.301 1.363,-2.931c-1.082,-1.52 -1.911,-2.274 2.578,-4.877c-0,-0 -7.046,1.759 -3.681,5.636Z" style="fill:#fff;fill-rule:nonzero;"/><path d="M24.843,22.618c-0,-0 0.582,0.479 -0.641,0.85c-2.325,0.705 -9.679,0.917 -11.722,0.028c-0.734,-0.319 0.643,-0.762 1.076,-0.856c0.452,-0.097 0.71,-0.08 0.71,-0.08c-0.817,-0.575 -5.278,1.13 -2.266,1.619c8.214,1.331 14.973,-0.6 12.843,-1.561Zm-8.608,-6.255c-0,0 -3.741,0.889 -1.325,1.212c1.02,0.136 3.053,0.105 4.948,-0.054c1.548,-0.13 3.102,-0.408 3.102,-0.408c0,-0 -0.545,0.234 -0.94,0.503c-3.799,1 -11.137,0.534 -9.024,-0.487c1.786,-0.864 3.239,-0.766 3.239,-0.766Zm6.71,3.75c3.861,-2.006 2.076,-3.933 0.829,-3.674c-0.304,0.064 -0.441,0.119 -0.441,0.119c-0,-0 0.113,-0.178 0.33,-0.255c2.465,-0.866 4.361,2.557 -0.796,3.912c0,-0 0.06,-0.054 0.078,-0.102Z" style="fill:#fff;fill-rule:nonzero;"/><path d="M20.617,5.035c-0,-0 2.138,2.139 -2.029,5.428c-3.341,2.639 -0.761,4.143 -0.001,5.863c-1.95,-1.76 -3.381,-3.309 -2.421,-4.751c1.409,-2.116 5.313,-3.142 4.451,-6.54Z" style="fill:#fff;fill-rule:nonzero;"/><path d="M16.614,25.551c3.706,0.237 9.398,-0.132 9.533,-1.885c-0,-0 -0.259,0.664 -3.063,1.192c-3.163,0.595 -7.066,0.526 -9.379,0.144c-0,0 0.474,0.392 2.909,0.549Z" style="fill:#fff;fill-rule:nonzero;"/></g></svg>