<?xml version="1.0" encoding="UTF-8" standalone="no"?><!DOCTYPE svg PUBLIC "-//W3C//DTD SVG 1.1//EN" "http://www.w3.org/Graphics/SVG/1.1/DTD/svg11.dtd"><svg width="100%" height="100%" viewBox="0 0 109 32" version="1.1" xmlns="http://www.w3.org/2000/svg" xmlns:xlink="http://www.w3.org/1999/xlink" xml:space="preserve" xmlns:serif="http://www.serif.com/" style="fill-rule:evenodd;clip-rule:evenodd;stroke-linejoin:round;stroke-miterlimit:2;"><rect id="Jupyter" x="0" y="0" width="108.905" height="32" style="fill:none;"/><clipPath id="_clip1"><rect x="0" y="0" width="108.905" height="32"/></clipPath><g clip-path="url(#_clip1)"><path d="M108.905,3.2c0,-1.766 -1.434,-3.2 -3.2,-3.2l-102.505,0c-1.766,0 -3.2,1.434 -3.2,3.2l-0,25.6c-0,1.766 1.434,3.2 3.2,3.2l102.505,0c1.766,0 3.2,-1.434 3.2,-3.2l0,-25.6Z" style="fill:#f37821;"/><text x="37.544px" y="22.25px" style="font-family:'GoogleSansText-Bold', 'Google Sans Text', sans-serif;font-weight:700;font-size:17.63px;fill:#fff;">J<tspan x="46.711px 56.725px 66.792px 76.488px 82.694px 92.302px " y="22.25px 22.25px 22.25px 22.25px 22.25px 22.25px ">upyter</tspan></text><path d="M27.108,6.858c0.002,0.026 0.003,0.052 0.003,0.078c-0,0.718 -0.592,1.31 -1.31,1.31c-0.719,-0 -1.311,-0.592 -1.311,-1.31c0,-0.698 0.557,-1.279 1.254,-1.309c0.024,-0.002 0.048,-0.002 0.071,-0.002c0.686,-0 1.259,0.545 1.293,1.23l0,0.003Z" style="fill:#fff;fill-rule:nonzero;"/><path d="M19.466,21.992c-3.478,0 -6.535,-1.248 -8.116,-3.091c1.254,3.388 4.503,5.651 8.116,5.651c3.613,0 6.863,-2.263 8.116,-5.651c-1.577,1.842 -4.622,3.091 -8.116,3.091Z" style="fill:#fff;fill-rule:nonzero;"/><path d="M19.466,10.005c3.479,0 6.535,1.248 8.116,3.092c-1.253,-3.389 -4.503,-5.652 -8.116,-5.652c-3.613,0 -6.862,2.263 -8.116,5.652c1.581,-1.848 4.623,-3.092 8.116,-3.092Z" style="fill:#fff;fill-rule:nonzero;"/><path d="M14.679,25.58c0.002,0.026 0.002,0.053 0.002,0.079c0,0.897 -0.738,1.635 -1.635,1.635c-0.897,-0 -1.635,-0.738 -1.635,-1.635c0,-0.897 0.738,-1.635 1.635,-1.635c0.631,-0 1.208,0.365 1.478,0.936c0.092,0.194 0.144,0.405 0.155,0.62Z" style="fill:#fff;fill-rule:nonzero;"/><path d="M11.746,9.585c-0.009,0 -0.017,0 -0.026,0c-0.521,0 -0.95,-0.429 -0.95,-0.95c-0,-0.522 0.429,-0.951 0.95,-0.951c0.507,0 0.929,0.406 0.95,0.912c0.015,0.524 -0.4,0.968 -0.924,0.989Z" style="fill:#fff;fill-rule:nonzero;"/></g></svg>