<?xml version="1.0" encoding="UTF-8" standalone="no"?><!DOCTYPE svg PUBLIC "-//W3C//DTD SVG 1.1//EN" "http://www.w3.org/Graphics/SVG/1.1/DTD/svg11.dtd"><svg width="100%" height="100%" viewBox="0 0 93 32" version="1.1" xmlns="http://www.w3.org/2000/svg" xmlns:xlink="http://www.w3.org/1999/xlink" xml:space="preserve" xmlns:serif="http://www.serif.com/" style="fill-rule:evenodd;clip-rule:evenodd;stroke-linejoin:round;stroke-miterlimit:2;"><rect id="Kotlin" x="0" y="0" width="92.295" height="32" style="fill:none;"/><clipPath id="_clip1"><rect x="0" y="0" width="92.295" height="32"/></clipPath><g clip-path="url(#_clip1)"><path d="M92.295,3.2c0,-1.766 -1.434,-3.2 -3.2,-3.2l-85.895,0c-1.766,0 -3.2,1.434 -3.2,3.2l-0,25.6c-0,1.766 1.434,3.2 3.2,3.2l85.895,0c1.766,0 3.2,-1.434 3.2,-3.2l0,-25.6Z" style="fill:#e27659;"/><text x="37.544px" y="22.25px" style="font-family:'GoogleSansText-Bold', 'Google Sans Text', sans-serif;font-weight:700;font-size:17.63px;fill:#fff;">K<tspan x="48.298px 58.065px 64.676px 68.801px 72.909px " y="22.25px 22.25px 22.25px 22.25px 22.25px ">otlin</tspan></text><path d="M12.313,24.879l8.362,-8.509l8.434,8.509l-16.796,0Zm-0.962,-17.758l8.879,-0l-8.879,9.249l-0,-9.249Zm9.914,-0l-9.914,10.359l-0,7.399l17.758,-17.758l-7.844,-0Z" style="fill:#fff;fill-rule:nonzero;"/></g></svg>