<?xml version="1.0" encoding="UTF-8" standalone="no"?><!DOCTYPE svg PUBLIC "-//W3C//DTD SVG 1.1//EN" "http://www.w3.org/Graphics/SVG/1.1/DTD/svg11.dtd"><svg width="100%" height="100%" viewBox="0 0 115 32" version="1.1" xmlns="http://www.w3.org/2000/svg" xmlns:xlink="http://www.w3.org/1999/xlink" xml:space="preserve" xmlns:serif="http://www.serif.com/" style="fill-rule:evenodd;clip-rule:evenodd;stroke-linejoin:round;stroke-miterlimit:2;"><rect id="LinkedIn" x="0" y="0" width="114.764" height="32" style="fill:none;"/><clipPath id="_clip1"><rect x="0" y="0" width="114.764" height="32"/></clipPath><g clip-path="url(#_clip1)"><path d="M114.764,3.2c0,-1.766 -1.433,-3.2 -3.2,-3.2l-108.364,0c-1.766,0 -3.2,1.434 -3.2,3.2l0,25.6c0,1.766 1.434,3.2 3.2,3.2l108.364,0c1.767,0 3.2,-1.434 3.2,-3.2l0,-25.6Z" style="fill:#0177b5;"/><text x="36.845px" y="22.25px" style="font-family:'GoogleSansText-Bold', 'Google Sans Text', sans-serif;font-weight:700;font-size:17.63px;fill:#fff;">L<tspan x="46.541px 50.649px 60.663px 69.671px 79.368px 89.787px 94.459px " y="22.25px 22.25px 22.25px 22.25px 22.25px 22.25px 22.25px ">inkedIn</tspan></text><path d="M27.673,6.352l-16.443,0c-0.785,0 -1.424,0.623 -1.424,1.39l-0,16.513c-0,0.769 0.639,1.393 1.424,1.393l16.444,0c0.787,0 1.428,-0.624 1.428,-1.393l0,-16.513c0,-0.767 -0.641,-1.39 -1.429,-1.39Zm-10.344,7.234l-0.004,0l0.004,-0.002l-0,0.002l2.741,0l-0,1.259l0.038,-0c0.382,-0.724 1.315,-1.487 2.713,-1.487c2.898,-0 3.433,1.907 3.433,4.386l0,5.051l-2.86,-0l-0,-4.479c-0,-1.068 -0.019,-2.443 -1.487,-2.443c-1.49,0 -1.719,1.164 -1.719,2.364l0,4.555l-2.859,0l-0,-9.206Zm-4.662,0l2.867,0l0,9.208l-2.867,0l0,-9.208Zm1.432,-4.583c0.914,0 1.658,0.744 1.658,1.659c-0,0.914 -0.744,1.66 -1.658,1.66c-0.91,-0.002 -1.658,-0.75 -1.661,-1.66l0,-0c0,-0.91 0.749,-1.659 1.659,-1.659c0,0 0.001,0 0.002,0Z" style="fill:#fff;fill-rule:nonzero;"/></g></svg>