<?xml version="1.0" encoding="UTF-8" standalone="no"?><!DOCTYPE svg PUBLIC "-//W3C//DTD SVG 1.1//EN" "http://www.w3.org/Graphics/SVG/1.1/DTD/svg11.dtd"><svg width="100%" height="100%" viewBox="0 0 93 32" version="1.1" xmlns="http://www.w3.org/2000/svg" xmlns:xlink="http://www.w3.org/1999/xlink" xml:space="preserve" xmlns:serif="http://www.serif.com/" style="fill-rule:evenodd;clip-rule:evenodd;stroke-linejoin:round;stroke-miterlimit:2;"><rect id="Linux" x="0" y="0" width="92.231" height="32" style="fill:none;"/><clipPath id="_clip1"><rect x="0" y="0" width="92.231" height="32"/></clipPath><g clip-path="url(#_clip1)"><path d="M92.231,3.2c0,-1.766 -1.434,-3.2 -3.2,-3.2l-85.831,0c-1.766,0 -3.2,1.434 -3.2,3.2l-0,25.6c-0,1.766 1.434,3.2 3.2,3.2l85.831,0c1.766,0 3.2,-1.434 3.2,-3.2l0,-25.6Z" style="fill:#ff6309;"/><text x="37.544px" y="22.25px" style="font-family:'GoogleSansText-Bold', 'Google Sans Text', sans-serif;font-weight:700;font-size:17.63px;fill:#fff;">L<tspan x="47.24px 51.348px 61.362px 71.375px " y="22.25px 22.25px 22.25px 22.25px ">inux</tspan></text><clipPath id="_clip2"><rect id="_2333386-code-linux-os_85584.svg" serif:id="2333386-code-linux-os_85584.svg" x="9.352" y="6.12" width="19.757" height="19.757"/></clipPath><g clip-path="url(#_clip2)"><g><path d="M25.829,19.869c0.426,0.183 0.602,0.538 0.681,0.947c0.085,0.438 0.215,0.847 0.546,1.167c0.044,0.042 0.076,0.098 0.11,0.151c0.407,0.618 0.314,1.055 -0.323,1.424c-0.285,0.166 -0.586,0.303 -0.881,0.452c-0.444,0.222 -0.833,0.507 -1.162,0.887c-0.419,0.481 -0.931,0.828 -1.575,0.948c-0.772,0.144 -1.449,-0.193 -1.779,-0.913c-0.07,-0.154 -0.15,-0.201 -0.316,-0.21c-0.409,-0.024 -0.818,-0.066 -1.223,-0.126c-0.715,-0.105 -1.401,0.071 -2.097,0.173c-0.276,0.04 -0.467,0.131 -0.65,0.365c-0.359,0.462 -0.903,0.581 -1.451,0.508c-0.445,-0.059 -0.901,-0.171 -1.304,-0.361c-0.588,-0.276 -1.195,-0.403 -1.828,-0.471c-0.239,-0.026 -0.479,-0.058 -0.713,-0.108c-0.635,-0.138 -0.936,-0.549 -0.767,-1.172c0.139,-0.513 0.158,-1.001 0.092,-1.525c-0.094,-0.748 0.133,-1.099 0.875,-1.309c0.594,-0.169 0.82,-0.683 1.183,-1.072c0.028,-0.031 0.023,-0.103 0.019,-0.154c-0.104,-1.015 0.199,-1.941 0.625,-2.836c0.466,-0.982 1.091,-1.861 1.769,-2.706c0.736,-0.918 1.035,-1.975 0.96,-3.146c-0.056,-0.881 -0.131,-1.763 0.081,-2.638c0.276,-1.146 1.064,-1.873 2.235,-1.984c0.5,-0.047 1.025,-0.068 1.511,0.03c1.138,0.228 1.676,1.062 1.931,2.123c0.199,0.832 0.225,1.681 0.188,2.529c-0.036,0.817 0.152,1.557 0.645,2.212c0.354,0.471 0.743,0.916 1.074,1.402c0.417,0.611 0.839,1.225 1.169,1.883c0.55,1.095 0.759,2.189 0.375,3.53Zm-9.015,2.474c0.286,0.482 0.614,0.872 1.156,1.058c1.21,0.417 2.312,0.165 3.357,-0.487c0.116,-0.072 0.237,-0.219 0.26,-0.347c0.111,-0.621 0.189,-1.249 0.278,-1.876c0.083,-0.588 0.203,-1.155 0.806,-1.461c0.052,-0.027 0.077,-0.123 0.098,-0.191c0.11,-0.361 0.288,-0.535 0.652,-0.478c0.727,0.113 1.449,0.275 1.698,1.161c0.148,-0.247 0.073,-0.459 -0.082,-0.617c-0.177,-0.181 -0.382,-0.355 -0.608,-0.462c-0.287,-0.134 -0.389,-0.265 -0.363,-0.62c0.09,-1.213 -0.475,-2.178 -1.285,-3.025c-0.017,-0.017 -0.048,-0.023 -0.073,-0.033c0.823,0.974 1.367,2.01 0.983,3.328c-0.432,-0.032 -0.438,-0.031 -0.477,-0.22c-0.162,-0.787 -0.483,-1.511 -0.836,-2.228c-0.293,-0.598 -0.553,-1.216 -0.797,-1.836c-0.214,-0.542 -0.386,-1.105 -0.572,-1.644c-0.203,0.134 -0.393,0.276 -0.598,0.393c-0.259,0.148 -0.534,0.267 -0.793,0.416c-0.657,0.372 -1.191,0.322 -1.765,-0.172c-0.157,-0.136 -0.332,-0.252 -0.535,-0.403c-0.098,1.039 -0.447,1.935 -0.839,2.82c-0.177,0.399 -0.357,0.797 -0.542,1.192c-0.35,0.749 -0.538,1.539 -0.61,2.419c-0.316,-0.457 -0.403,-0.907 -0.372,-1.387c0.039,-0.619 0.264,-1.181 0.55,-1.722c0.109,-0.206 0.205,-0.417 0.308,-0.627c-0.02,-0.009 -0.04,-0.018 -0.06,-0.027c-0.454,0.717 -0.864,1.456 -1.029,2.3c-0.214,1.098 0.15,1.821 1.106,2.388c0.6,0.355 1.148,0.79 1.471,1.436c0.26,0.517 0.092,0.839 -0.487,0.952Zm-1.263,2.687c0.555,-0.042 0.953,-0.116 1.181,-0.522c0.228,-0.405 0.152,-0.799 -0.093,-1.168c-0.154,-0.234 -0.333,-0.452 -0.489,-0.686c-0.291,-0.44 -0.576,-0.885 -0.857,-1.331c-0.203,-0.322 -0.368,-0.671 -0.598,-0.972c-0.34,-0.448 -0.929,-0.652 -1.377,0.047c-0.244,0.381 -0.567,0.621 -1.001,0.753c-0.452,0.136 -0.575,0.403 -0.538,0.88c0.028,0.36 0.082,0.743 -0.005,1.083c-0.201,0.786 -0.067,1.037 0.738,1.119c0.731,0.076 1.444,0.192 2.116,0.536c0.317,0.162 0.698,0.2 0.923,0.261Zm7.427,-5.107c-0.107,0.137 -0.243,0.252 -0.302,0.4c-0.093,0.229 -0.169,0.479 -0.188,0.723c-0.064,0.761 -0.137,1.517 -0.396,2.242c-0.052,0.148 -0.083,0.303 -0.111,0.458c-0.088,0.473 -0.041,0.914 0.362,1.242c0.397,0.326 0.852,0.336 1.286,0.126c0.319,-0.153 0.641,-0.354 0.879,-0.611c0.422,-0.456 0.912,-0.787 1.465,-1.046c0.213,-0.099 0.423,-0.211 0.617,-0.342c0.223,-0.152 0.267,-0.331 0.148,-0.575c-0.078,-0.16 -0.175,-0.319 -0.295,-0.451c-0.209,-0.23 -0.318,-0.499 -0.383,-0.795c-0.041,-0.183 -0.083,-0.37 -0.16,-0.54c-0.183,-0.409 -0.712,-0.499 -1.073,-0.236c-0.229,0.167 -0.495,0.302 -0.765,0.392c-0.342,0.116 -0.644,-0.019 -0.821,-0.333c-0.106,-0.187 -0.164,-0.4 -0.263,-0.654Zm-4.137,-6.902c0.102,-0.027 0.284,-0.044 0.439,-0.119c0.403,-0.189 0.796,-0.402 1.19,-0.61c0.073,-0.039 0.141,-0.093 0.204,-0.148c0.423,-0.377 0.355,-0.795 -0.161,-1.023c-0.369,-0.162 -0.737,-0.327 -1.102,-0.498c-0.481,-0.223 -0.946,-0.235 -1.383,0.099c-0.281,0.214 -0.555,0.438 -0.829,0.662c-0.164,0.133 -0.203,0.301 -0.12,0.498c0.133,0.31 1.194,1.085 1.537,1.12c0.05,0.007 0.1,0.01 0.225,0.019Zm1.421,-2.218c0.097,0.042 0.173,0.068 0.241,0.108c0.222,0.132 0.371,0.043 0.412,-0.177c0.06,-0.328 0.14,-0.67 0.097,-0.993c-0.07,-0.539 -0.473,-0.905 -0.894,-0.927c-0.506,-0.025 -0.927,0.394 -1.018,1.008c-0.071,0.472 -0.058,0.49 0.402,0.598c0.05,-0.197 0.069,-0.409 0.16,-0.583c0.06,-0.113 0.226,-0.239 0.341,-0.235c0.114,0.003 0.269,0.139 0.328,0.256c0.154,0.307 0.102,0.623 -0.069,0.945Zm3.087,8.791c0.016,0.263 0.072,0.553 0.358,0.688c0.272,0.13 0.517,-0.015 0.738,-0.176c0.054,-0.041 0.105,-0.089 0.149,-0.141c0.158,-0.181 0.156,-0.397 -0.042,-0.534c-0.184,-0.127 -0.392,-0.235 -0.604,-0.306c-0.401,-0.133 -0.602,0.026 -0.599,0.469Zm-5.33,-9.096c0.131,-0.104 0.336,-0.187 0.348,-0.292c0.045,-0.391 -0.057,-0.764 -0.36,-1.046c-0.266,-0.245 -0.583,-0.208 -0.812,0.08c-0.37,0.46 -0.31,1.348 0.129,1.78c0.074,-0.055 0.151,-0.112 0.233,-0.174c-0.217,-0.239 -0.261,-0.513 -0.196,-0.789c0.027,-0.118 0.159,-0.209 0.243,-0.312c0.096,0.081 0.224,0.146 0.278,0.248c0.071,0.137 0.086,0.303 0.137,0.505Z" style="fill:#fff;"/><path d="M17.775,13.164c0.055,0.046 0.11,0.091 0.163,0.139c0.518,0.481 0.925,0.538 1.55,0.207c0.181,-0.095 0.354,-0.206 0.535,-0.304c0.066,-0.034 0.143,-0.051 0.225,-0.046c-0.514,0.27 -0.956,0.725 -1.608,0.635c-0.39,-0.054 -0.658,-0.304 -0.913,-0.567c0.016,-0.021 0.032,-0.042 0.048,-0.064Z" style="fill:#fff;"/></g></g></g></svg>