<?xml version="1.0" encoding="UTF-8" standalone="no"?><!DOCTYPE svg PUBLIC "-//W3C//DTD SVG 1.1//EN" "http://www.w3.org/Graphics/SVG/1.1/DTD/svg11.dtd"><svg width="100%" height="100%" viewBox="0 0 127 32" version="1.1" xmlns="http://www.w3.org/2000/svg" xmlns:xlink="http://www.w3.org/1999/xlink" xml:space="preserve" xmlns:serif="http://www.serif.com/" style="fill-rule:evenodd;clip-rule:evenodd;stroke-linejoin:round;stroke-miterlimit:2;"><rect id="Mastodon" x="0" y="0" width="126.407" height="32" style="fill:none;"/><clipPath id="_clip1"><rect x="0" y="0" width="126.407" height="32"/></clipPath><g clip-path="url(#_clip1)"><path d="M126.407,3.2c0,-1.766 -1.434,-3.2 -3.2,-3.2l-120.007,0c-1.766,0 -3.2,1.434 -3.2,3.2l0,25.6c0,1.766 1.434,3.2 3.2,3.2l120.007,0c1.766,0 3.2,-1.434 3.2,-3.2l0,-25.6Z" style="fill:#5c45de;"/><text x="36.845px" y="22.25px" style="font-family:'GoogleSansText-Bold', 'Google Sans Text', sans-serif;font-weight:700;font-size:17.63px;fill:#fff;">M<tspan x="51.548px 61.139px 69.513px 75.718px 85.75px 96.081px 105.936px " y="22.25px 22.25px 22.25px 22.25px 22.25px 22.25px 22.25px ">astodon</tspan></text><clipPath id="_clip2"><rect id="mastodon.svg" x="9.806" y="6.09" width="19.821" height="19.821"/></clipPath><g clip-path="url(#_clip2)"><path d="M28.958,12.596c0,-4.3 -2.816,-5.559 -2.816,-5.559c-1.42,-0.654 -3.858,-0.929 -6.394,-0.948l-0.062,-0c-2.532,0.019 -4.972,0.293 -6.39,0.948c0,0 -2.82,1.259 -2.82,5.559c-0,0.984 -0.019,2.161 0.013,3.41c0.103,4.207 0.771,8.349 4.658,9.378c1.794,0.475 3.333,0.575 4.572,0.507c2.249,-0.126 3.51,-0.803 3.51,-0.803l-0.075,-1.633c0,0 -1.606,0.507 -3.409,0.445c-1.787,-0.061 -3.675,-0.19 -3.962,-2.386c-0.029,-0.203 -0.042,-0.41 -0.042,-0.616c0,-0 1.755,0.428 3.981,0.532c1.358,0.061 2.632,-0.08 3.93,-0.236c2.48,-0.293 4.645,-1.826 4.916,-3.222c0.425,-2.201 0.39,-5.375 0.39,-5.375l0,-0.001Zm-3.322,5.543l-2.062,-0l0,-5.055c0,-1.065 -0.448,-1.607 -1.345,-1.607c-0.99,-0 -1.487,0.642 -1.487,1.91l-0,2.768l-2.052,-0l0,-2.768c0,-1.268 -0.497,-1.91 -1.487,-1.91c-0.897,-0 -1.345,0.542 -1.345,1.607l-0,5.052l-2.061,-0l-0,-5.204c-0,-1.065 0.27,-1.909 0.815,-2.535c0.562,-0.626 1.294,-0.949 2.207,-0.949c1.056,-0 1.855,0.407 2.384,1.22l0.513,0.861l0.513,-0.861c0.53,-0.813 1.329,-1.22 2.384,-1.22c0.912,-0 1.648,0.323 2.21,0.949c0.542,0.626 0.813,1.471 0.813,2.535l-0,5.207Z" style="fill:#fff;fill-rule:nonzero;"/></g></g></svg>