<?xml version="1.0" encoding="UTF-8" standalone="no"?><!DOCTYPE svg PUBLIC "-//W3C//DTD SVG 1.1//EN" "http://www.w3.org/Graphics/SVG/1.1/DTD/svg11.dtd"><svg width="100%" height="100%" viewBox="0 0 107 32" version="1.1" xmlns="http://www.w3.org/2000/svg" xmlns:xlink="http://www.w3.org/1999/xlink" xml:space="preserve" xmlns:serif="http://www.serif.com/" style="fill-rule:evenodd;clip-rule:evenodd;stroke-linejoin:round;stroke-miterlimit:2;"><rect id="MySQL" x="0" y="0" width="106.901" height="32" style="fill:none;"/><clipPath id="_clip1"><rect x="0" y="0" width="106.901" height="32"/></clipPath><g clip-path="url(#_clip1)"><path d="M106.901,3.2c0,-1.766 -1.433,-3.2 -3.2,-3.2l-100.501,0c-1.766,0 -3.2,1.434 -3.2,3.2l-0,25.6c-0,1.766 1.434,3.2 3.2,3.2l100.501,0c1.767,0 3.2,-1.434 3.2,-3.2l0,-25.6Z" style="fill:#e48e00;"/><path d="M28.544,10.716c-0,-2.397 -1.946,-4.342 -4.343,-4.342l-10.351,-0c-2.397,-0 -4.343,1.945 -4.343,4.342l0,10.195c0,2.397 1.946,4.343 4.343,4.343l10.351,-0c2.397,-0 4.343,-1.946 4.343,-4.343l-0,-10.195Z" style="fill:#fff;"/><text x="39.586px" y="22.25px" style="font-family:'GoogleSansText-Bold', 'Google Sans Text', sans-serif;font-weight:700;font-size:17.63px;fill:#fff;">M<tspan x="54.377px 64.074px 74.405px 87.821px " y="22.25px 22.25px 22.25px 22.25px ">ySQL</tspan></text><clipPath id="_clip2"><rect id="mysql_logo_icon_169940.svg" x="11.709" y="7.631" width="26.987" height="26.987"/></clipPath><g clip-path="url(#_clip2)"><path d="M36.568,28.653c-1.468,-0.041 -2.607,0.11 -3.561,0.511c-0.275,0.11 -0.716,0.11 -0.752,0.456c0.147,0.145 0.164,0.383 0.293,0.584c0.22,0.365 0.606,0.857 0.955,1.112l1.174,0.839c0.716,0.438 1.523,0.693 2.221,1.131c0.404,0.256 0.807,0.584 1.211,0.858c0.206,0.146 0.33,0.383 0.588,0.474l-0,-0.055c-0.129,-0.164 -0.166,-0.401 -0.294,-0.584l-0.551,-0.529c-0.532,-0.711 -1.193,-1.331 -1.909,-1.842c-0.587,-0.401 -1.871,-0.948 -2.11,-1.623l-0.036,-0.041c0.403,-0.04 0.88,-0.182 1.266,-0.292c0.624,-0.163 1.193,-0.127 1.835,-0.291l0.881,-0.256l0,-0.163c-0.33,-0.329 -0.569,-0.767 -0.917,-1.076c-0.936,-0.803 -1.964,-1.587 -3.029,-2.244c-0.569,-0.365 -1.303,-0.602 -1.909,-0.912c-0.221,-0.109 -0.587,-0.164 -0.716,-0.346c-0.331,-0.401 -0.514,-0.93 -0.752,-1.405l-1.505,-3.174c-0.331,-0.711 -0.533,-1.423 -0.936,-2.079c-1.891,-3.101 -3.947,-4.98 -7.104,-6.822c-0.678,-0.383 -1.486,-0.548 -2.345,-0.748l-1.376,-0.074c-0.294,-0.127 -0.587,-0.474 -0.845,-0.638c-1.046,-0.657 -3.744,-2.08 -4.515,-0.205c-0.496,1.186 0.734,2.353 1.152,2.955c0.312,0.42 0.715,0.894 0.936,1.368c0.124,0.31 0.165,0.639 0.294,0.967c0.293,0.802 0.569,1.697 0.954,2.445c0.206,0.383 0.422,0.785 0.679,1.131c0.147,0.204 0.404,0.292 0.459,0.62c-0.258,0.365 -0.275,0.912 -0.422,1.368c-0.661,2.062 -0.404,4.615 0.532,6.133c0.294,0.456 0.987,1.459 1.927,1.076c0.826,-0.329 0.642,-1.368 0.881,-2.28c0.055,-0.219 0.018,-0.365 0.128,-0.511l0,0.041l0.753,1.513c0.569,0.894 1.56,1.825 2.386,2.445c0.44,0.329 0.789,0.894 1.339,1.095l0,-0.056l-0.036,0c-0.11,-0.163 -0.275,-0.237 -0.422,-0.364c-0.331,-0.328 -0.698,-0.73 -0.955,-1.095c-0.77,-1.021 -1.449,-2.152 -2.055,-3.319c-0.294,-0.566 -0.551,-1.186 -0.789,-1.751c-0.111,-0.219 -0.111,-0.548 -0.294,-0.657c-0.276,0.401 -0.679,0.748 -0.882,1.241c-0.348,0.784 -0.385,1.751 -0.513,2.754c-0.074,0.018 -0.041,-0 -0.074,0.041c-0.587,-0.146 -0.789,-0.748 -1.009,-1.259c-0.551,-1.295 -0.643,-3.374 -0.166,-4.87c0.129,-0.383 0.68,-1.587 0.46,-1.952c-0.111,-0.346 -0.477,-0.547 -0.68,-0.821c-0.238,-0.346 -0.495,-0.784 -0.66,-1.167c-0.44,-1.022 -0.66,-2.152 -1.138,-3.174c-0.221,-0.474 -0.606,-0.967 -0.918,-1.404c-0.349,-0.493 -0.733,-0.84 -1.009,-1.423c-0.092,-0.204 -0.22,-0.529 -0.073,-0.748c0.036,-0.146 0.11,-0.204 0.256,-0.237c0.239,-0.205 0.918,0.055 1.157,0.163c0.679,0.274 1.248,0.529 1.816,0.912c0.258,0.182 0.533,0.529 0.863,0.621l0.386,-0c0.588,0.127 1.248,0.041 1.798,0.204c0.973,0.311 1.854,0.766 2.644,1.259c2.404,1.514 4.386,3.667 5.726,6.239c0.22,0.419 0.312,0.802 0.514,1.24c0.386,0.894 0.863,1.806 1.248,2.682c0.386,0.857 0.753,1.733 1.303,2.445c0.276,0.383 1.376,0.583 1.872,0.784c0.367,0.163 0.936,0.311 1.267,0.511c0.623,0.383 1.247,0.821 1.834,1.24c0.294,0.219 1.212,0.675 1.267,1.039l0.002,-0.01Zm-18.718,-15.851c-0.253,-0.002 -0.506,0.029 -0.752,0.091l0,0.041l0.036,0c0.147,0.292 0.404,0.493 0.588,0.748l0.422,0.876l0.037,-0.041c0.257,-0.182 0.385,-0.474 0.385,-0.912c-0.11,-0.127 -0.128,-0.255 -0.22,-0.383c-0.11,-0.182 -0.348,-0.274 -0.496,-0.419l0,-0.001Z" style="fill:#e48e00;"/></g></g></svg>