<?xml version="1.0" encoding="UTF-8" standalone="no"?><!DOCTYPE svg PUBLIC "-//W3C//DTD SVG 1.1//EN" "http://www.w3.org/Graphics/SVG/1.1/DTD/svg11.dtd"><svg width="100%" height="100%" viewBox="0 0 108 32" version="1.1" xmlns="http://www.w3.org/2000/svg" xmlns:xlink="http://www.w3.org/1999/xlink" xml:space="preserve" xmlns:serif="http://www.serif.com/" style="fill-rule:evenodd;clip-rule:evenodd;stroke-linejoin:round;stroke-miterlimit:2;"><rect id="Pandas" x="0" y="0" width="107.341" height="32" style="fill:none;"/><clipPath id="_clip1"><rect x="0" y="0" width="107.341" height="32"/></clipPath><g clip-path="url(#_clip1)"><path d="M107.341,3.2c0,-1.766 -1.434,-3.2 -3.2,-3.2l-100.941,0c-1.766,0 -3.2,1.434 -3.2,3.2l-0,25.6c-0,1.766 1.434,3.2 3.2,3.2l100.941,0c1.766,0 3.2,-1.434 3.2,-3.2l0,-25.6Z" style="fill:#130654;"/><text x="37.544px" y="22.25px" style="font-family:'GoogleSansText-Bold', 'Google Sans Text', sans-serif;font-weight:700;font-size:17.63px;fill:#fff;">P<tspan x="47.875px 57.554px 67.567px 77.898px 87.489px " y="22.25px 22.25px 22.25px 22.25px 22.25px ">andas</tspan></text><path d="M22.879,6.12l2.179,0l-0,15.038l-2.179,-0l0,-15.038Zm-3.427,10.748l2.179,0l-0,2.135l-2.179,-0l0,-2.135Zm0,-5.845l2.179,0l-0,4.524l-2.179,-0l0,-4.524Zm0,9.301l2.179,-0l-0,4.523l-2.179,0l0,-4.523Zm-6.927,-9.306l2.178,-0l-0,15.037l-2.179,-0l0.001,-15.037Zm3.499,2.125l2.179,0l-0,2.135l-2.178,-0l-0.001,-2.135Zm0,3.448l2.179,-0l-0,4.524l-2.178,0l-0.001,-4.524Zm0,-9.292l2.179,-0l-0,4.523l-2.178,0l-0.001,-4.523Z" style="fill:#fff;fill-rule:nonzero;"/></g></svg>