<?xml version="1.0" encoding="UTF-8" standalone="no"?><!DOCTYPE svg PUBLIC "-//W3C//DTD SVG 1.1//EN" "http://www.w3.org/Graphics/SVG/1.1/DTD/svg11.dtd"><svg width="100%" height="100%" viewBox="0 0 142 32" version="1.1" xmlns="http://www.w3.org/2000/svg" xmlns:xlink="http://www.w3.org/1999/xlink" xml:space="preserve" xmlns:serif="http://www.serif.com/" style="fill-rule:evenodd;clip-rule:evenodd;stroke-linejoin:round;stroke-miterlimit:2;"><rect id="PostgreSQL" x="0" y="0" width="141.032" height="32" style="fill:none;"/><clipPath id="_clip1"><rect x="0" y="0" width="141.032" height="32"/></clipPath><g clip-path="url(#_clip1)"><path d="M141.032,3.2c0,-1.766 -1.433,-3.2 -3.2,-3.2l-134.632,0c-1.766,0 -3.2,1.434 -3.2,3.2l-0,25.6c-0,1.766 1.434,3.2 3.2,3.2l134.632,0c1.767,0 3.2,-1.434 3.2,-3.2l0,-25.6Z" style="fill:#336791;"/><text x="37.544px" y="22.25px" style="font-family:'GoogleSansText-Bold', 'Google Sans Text', sans-serif;font-weight:700;font-size:17.63px;fill:#fff;">P<tspan x="47.61px 57.554px 65.928px 72.363px 82.359px 88.476px 98.084px 108.415px 121.831px " y="22.25px 22.25px 22.25px 22.25px 22.25px 22.25px 22.25px 22.25px 22.25px ">ostgreSQL</tspan></text><path d="M28.643,18.522c-0.071,-0.466 -0.463,-0.771 -0.919,-0.792c-0.164,-0.007 -0.332,0.01 -0.496,0.031c-0.199,0.025 -0.395,0.07 -0.593,0.099c-0.137,0.021 -0.276,0.03 -0.413,0.044l-0.003,-0.017c0.255,-0.483 0.521,-0.96 0.763,-1.449c0.185,-0.375 0.343,-0.764 0.507,-1.149c0.271,-0.639 0.488,-1.297 0.667,-1.967c0.172,-0.641 0.319,-1.288 0.365,-1.953c0.018,-0.266 0.031,-0.533 0.03,-0.798c-0.002,-0.212 -0.024,-0.425 -0.046,-0.636c-0.024,-0.242 -0.097,-0.472 -0.198,-0.693c-0.134,-0.291 -0.341,-0.53 -0.559,-0.757c-0.174,-0.181 -0.366,-0.347 -0.556,-0.512c-0.272,-0.236 -0.577,-0.425 -0.893,-0.592c-0.36,-0.19 -0.739,-0.339 -1.133,-0.439c-0.239,-0.061 -0.483,-0.106 -0.724,-0.155c-0.087,-0.017 -0.174,-0.054 -0.261,-0.054l-1.636,0c-0.06,0 -0.118,0.031 -0.178,0.038c-0.392,0.043 -0.779,0.117 -1.155,0.234c-0.14,0.043 -0.269,0.016 -0.402,0.003c-0.103,-0.009 -0.203,-0.036 -0.306,-0.042c-0.39,-0.019 -0.781,-0.048 -1.171,-0.043c-0.373,0.003 -0.743,0.065 -1.105,0.168c-0.303,0.086 -0.599,0.191 -0.87,0.35c-0.116,0.068 -0.208,0.055 -0.329,0.02c-0.403,-0.116 -0.81,-0.226 -1.22,-0.318c-0.256,-0.057 -0.519,-0.085 -0.78,-0.112c-0.25,-0.027 -0.502,-0.042 -0.753,-0.047c-0.246,-0.006 -0.494,-0.006 -0.738,0.016c-0.39,0.035 -0.772,0.114 -1.144,0.242c-0.413,0.142 -0.791,0.347 -1.132,0.617c-0.346,0.274 -0.624,0.609 -0.847,0.991c-0.236,0.403 -0.397,0.835 -0.497,1.288c-0.055,0.246 -0.089,0.498 -0.126,0.747c-0.012,0.078 0.117,0.156 -0.043,0.233l-0,1.086c0.16,0.072 0.033,0.144 0.042,0.216c0.023,0.174 0.042,0.35 0.072,0.522c0.046,0.274 0.101,0.546 0.157,0.818c0.079,0.379 0.161,0.758 0.247,1.136c0.064,0.275 0.136,0.548 0.211,0.82c0.115,0.415 0.229,0.831 0.359,1.241c0.121,0.382 0.26,0.758 0.397,1.134c0.19,0.52 0.418,1.023 0.691,1.505c0.237,0.418 0.507,0.809 0.869,1.131c0.239,0.212 0.504,0.375 0.814,0.456c0.243,0.064 0.49,0.072 0.738,0.021c0.289,-0.059 0.544,-0.183 0.771,-0.369c0.026,-0.022 0.055,-0.038 0.086,0.001c0.117,0.149 0.274,0.248 0.439,0.334c0.443,0.231 0.927,0.301 1.418,0.329c0.119,0.007 0.239,-0.01 0.359,-0.014c0.233,-0.006 0.46,-0.052 0.683,-0.116c0.117,-0.034 0.232,-0.077 0.351,-0.117c0.006,0.127 0.014,0.249 0.017,0.371l0.017,0.665c0.003,0.102 0.007,0.203 0.017,0.304c0.024,0.26 0.047,0.52 0.078,0.779c0.022,0.179 0.044,0.359 0.086,0.533c0.085,0.352 0.199,0.695 0.345,1.027c0.143,0.327 0.349,0.602 0.623,0.829c0.355,0.293 0.771,0.418 1.22,0.441c0.185,0.01 0.376,0.001 0.559,-0.032c0.29,-0.053 0.579,-0.119 0.861,-0.204c0.573,-0.173 1.069,-0.472 1.44,-0.955c0.211,-0.276 0.384,-0.574 0.495,-0.903c0.092,-0.272 0.178,-0.546 0.247,-0.824c0.054,-0.219 0.081,-0.446 0.114,-0.669c0.022,-0.149 0.035,-0.298 0.049,-0.447c0.022,-0.243 0.045,-0.485 0.061,-0.728c0.011,-0.169 0.011,-0.339 0.018,-0.508c0.002,-0.052 0.01,-0.103 0.015,-0.154c0.004,-0.048 0.028,-0.064 0.077,-0.064c0.171,0.003 0.342,0.007 0.513,-0c0.191,-0.009 0.384,-0.017 0.573,-0.049c0.268,-0.045 0.534,-0.101 0.797,-0.17c0.31,-0.081 0.595,-0.227 0.869,-0.392c0.319,-0.193 0.61,-0.419 0.846,-0.711c0.206,-0.254 0.303,-0.548 0.253,-0.869Zm-0.545,0.157c-0.01,0.146 -0.077,0.272 -0.174,0.379c-0.459,0.505 -1.034,0.812 -1.692,0.963c-0.249,0.057 -0.507,0.087 -0.763,0.11c-0.218,0.02 -0.439,0.024 -0.657,0.016c-0.161,-0.006 -0.321,-0.043 -0.485,-0.067c-0.016,0.15 -0.032,0.307 -0.051,0.463l-0.077,0.598c-0.023,0.19 -0.041,0.38 -0.065,0.57c-0.023,0.184 -0.052,0.367 -0.076,0.551c-0.023,0.171 -0.04,0.343 -0.065,0.514c-0.04,0.262 -0.077,0.525 -0.128,0.785c-0.061,0.31 -0.156,0.612 -0.309,0.892c-0.187,0.342 -0.453,0.602 -0.791,0.795c-0.348,0.199 -0.729,0.303 -1.115,0.39c-0.273,0.061 -0.555,0.071 -0.831,0.046c-0.48,-0.043 -0.89,-0.249 -1.2,-0.621c-0.295,-0.355 -0.495,-0.762 -0.567,-1.223c-0.034,-0.219 -0.059,-0.44 -0.078,-0.661c-0.022,-0.245 -0.037,-0.492 -0.048,-0.738c-0.014,-0.312 -0.025,-0.625 -0.032,-0.938c-0.008,-0.384 -0.011,-0.769 -0.016,-1.153l-0.001,-0.015c-0.196,0.117 -0.388,0.246 -0.592,0.352c-0.238,0.124 -0.498,0.196 -0.766,0.216c-0.211,0.016 -0.424,0.03 -0.634,0.014c-0.344,-0.028 -0.687,-0.082 -0.995,-0.251c-0.124,-0.069 -0.255,-0.152 -0.341,-0.262c-0.206,-0.263 -0.107,-0.595 0.204,-0.755c0.215,-0.111 0.449,-0.157 0.682,-0.211c0.202,-0.047 0.403,-0.1 0.601,-0.164c0.195,-0.064 0.318,-0.223 0.44,-0.378l0.192,-0.248c-0.08,-0.008 -0.156,-0.017 -0.231,-0.024c-0.23,-0.022 -0.45,-0.085 -0.66,-0.178c-0.179,-0.079 -0.182,-0.088 -0.313,0.055c-0.22,0.239 -0.434,0.483 -0.649,0.726c-0.159,0.178 -0.317,0.358 -0.474,0.537c-0.156,0.177 -0.303,0.364 -0.471,0.528c-0.25,0.245 -0.551,0.392 -0.91,0.376c-0.231,-0.011 -0.442,-0.092 -0.632,-0.224c-0.392,-0.273 -0.656,-0.655 -0.896,-1.055c-0.308,-0.514 -0.544,-1.061 -0.746,-1.624c-0.14,-0.388 -0.281,-0.777 -0.403,-1.171c-0.133,-0.429 -0.249,-0.862 -0.364,-1.296c-0.087,-0.327 -0.163,-0.657 -0.237,-0.988c-0.083,-0.376 -0.163,-0.752 -0.234,-1.131c-0.047,-0.255 -0.075,-0.514 -0.113,-0.772c-0.052,-0.346 -0.062,-0.696 -0.043,-1.044c0.017,-0.314 0.062,-0.627 0.106,-0.938c0.062,-0.431 0.205,-0.838 0.409,-1.222c0.125,-0.236 0.28,-0.45 0.46,-0.648c0.295,-0.327 0.651,-0.562 1.048,-0.74c0.278,-0.123 0.571,-0.198 0.869,-0.256c0.444,-0.086 0.891,-0.083 1.338,-0.073c0.196,0.004 0.39,0.039 0.586,0.059c0.421,0.041 0.833,0.13 1.24,0.239c0.297,0.08 0.587,0.183 0.882,0.272c0.029,0.009 0.072,0.008 0.097,-0.007c0.398,-0.261 0.834,-0.432 1.298,-0.531c0.176,-0.037 0.357,-0.053 0.537,-0.065c0.219,-0.014 0.439,-0.026 0.658,-0.014c0.262,0.015 0.523,0.054 0.784,0.09c0.126,0.017 0.25,0.061 0.377,0.073c0.06,0.006 0.125,-0.039 0.189,-0.054c0.327,-0.075 0.653,-0.159 0.984,-0.219c0.245,-0.045 0.497,-0.066 0.747,-0.08c0.278,-0.016 0.559,-0.028 0.838,-0.014c0.352,0.017 0.702,0.067 1.047,0.147c0.428,0.1 0.838,0.244 1.228,0.445c0.292,0.15 0.569,0.324 0.818,0.538c0.164,0.14 0.331,0.278 0.479,0.435c0.182,0.192 0.368,0.385 0.482,0.632c0.086,0.186 0.147,0.379 0.164,0.583c0.021,0.253 0.047,0.508 0.044,0.761c-0.002,0.243 -0.035,0.485 -0.059,0.728c-0.053,0.551 -0.173,1.091 -0.319,1.624c-0.12,0.44 -0.261,0.875 -0.413,1.305c-0.141,0.397 -0.303,0.786 -0.466,1.174c-0.121,0.286 -0.252,0.57 -0.393,0.847c-0.268,0.525 -0.547,1.044 -0.869,1.539c-0.056,0.085 -0.108,0.173 -0.163,0.26c0.141,0.095 0.3,0.128 0.461,0.146c0.152,0.016 0.308,0.026 0.46,0.015c0.244,-0.018 0.487,-0.053 0.73,-0.087c0.24,-0.034 0.476,-0.102 0.722,-0.084c0.247,0.018 0.423,0.205 0.406,0.436Zm-3.517,-0.536c-0.104,-0.135 -0.211,-0.268 -0.314,-0.405c-0.16,-0.215 -0.276,-0.455 -0.392,-0.696c-0.11,-0.228 -0.245,-0.444 -0.36,-0.67c-0.203,-0.394 -0.408,-0.786 -0.595,-1.188c-0.234,-0.504 -0.418,-1.026 -0.476,-1.585c-0.025,-0.237 -0.031,-0.473 0.017,-0.707c0.076,-0.374 0.272,-0.667 0.6,-0.867c0.305,-0.186 0.644,-0.246 0.992,-0.265c0.216,-0.012 0.433,-0.002 0.657,-0.002l-0.008,-0.038c-0.139,-0.292 -0.269,-0.588 -0.422,-0.872c-0.215,-0.402 -0.49,-0.763 -0.796,-1.099c-0.227,-0.248 -0.473,-0.479 -0.743,-0.683c-0.265,-0.2 -0.544,-0.379 -0.841,-0.526c-0.356,-0.174 -0.726,-0.309 -1.114,-0.396c-0.373,-0.082 -0.748,-0.133 -1.13,-0.137c-0.327,-0.004 -0.651,0.011 -0.969,0.085c-0.479,0.111 -0.918,0.308 -1.3,0.628c-0.213,0.179 -0.399,0.379 -0.562,0.602c-0.191,0.263 -0.345,0.546 -0.477,0.844c-0.181,0.407 -0.305,0.832 -0.39,1.268c-0.042,0.217 -0.075,0.437 -0.109,0.656c-0.012,0.077 -0.013,0.155 -0.02,0.243c0.059,-0.031 0.102,-0.054 0.145,-0.075l0.142,-0.064c0.478,-0.219 0.973,-0.359 1.506,-0.343c0.226,0.007 0.442,0.051 0.644,0.15c0.385,0.191 0.611,0.514 0.709,0.924c0.068,0.282 0.114,0.571 0.159,0.858c0.036,0.225 0.072,0.451 0.076,0.678c0.006,0.331 -0.011,0.662 -0.029,0.993c-0.015,0.282 -0.074,0.559 -0.172,0.822c-0.179,0.478 -0.379,0.949 -0.565,1.424c-0.062,0.157 -0.109,0.32 -0.167,0.493c0.09,-0 0.163,-0.001 0.235,-0c0.029,0 0.058,0.001 0.085,0.008c0.215,0.05 0.4,0.147 0.552,0.312c0.204,0.219 0.31,0.475 0.316,0.771c0.003,0.164 -0.015,0.329 -0.014,0.493c0.003,0.764 0.009,1.529 0.016,2.294c0.001,0.125 0.007,0.25 0.016,0.375c0.019,0.261 0.037,0.522 0.063,0.783c0.018,0.185 0.043,0.369 0.072,0.553c0.041,0.26 0.16,0.491 0.294,0.713c0.116,0.19 0.266,0.352 0.464,0.463c0.337,0.19 0.7,0.205 1.065,0.136c0.247,-0.048 0.489,-0.123 0.729,-0.201c0.236,-0.077 0.45,-0.203 0.629,-0.377c0.168,-0.162 0.287,-0.361 0.367,-0.58c0.156,-0.425 0.205,-0.872 0.269,-1.316c0.025,-0.166 0.045,-0.333 0.068,-0.499c0.025,-0.19 0.05,-0.379 0.074,-0.568c0.018,-0.141 0.034,-0.283 0.052,-0.424c0.024,-0.202 0.05,-0.405 0.074,-0.608c0.018,-0.156 0.033,-0.314 0.049,-0.471c0.021,-0.201 0.043,-0.401 0.061,-0.602c0.014,-0.153 0.008,-0.308 0.035,-0.458c0.05,-0.274 0.179,-0.508 0.423,-0.659c0.101,-0.063 0.216,-0.104 0.329,-0.158l-0.019,-0.03Zm-9.202,-1.126c-0.122,-0.288 -0.195,-0.588 -0.217,-0.899c-0.02,-0.291 0.015,-0.582 0.044,-0.872c0.029,-0.281 0.054,-0.564 0.062,-0.846c0.014,-0.464 -0.017,-0.928 -0.039,-1.392c-0.014,-0.276 0.018,-0.556 0.043,-0.833c0.022,-0.249 0.05,-0.499 0.097,-0.745c0.079,-0.412 0.184,-0.819 0.333,-1.213c0.142,-0.373 0.305,-0.737 0.535,-1.065c0.157,-0.224 0.336,-0.434 0.508,-0.654l-0.051,-0.018c-0.559,-0.177 -1.127,-0.316 -1.711,-0.377c-0.277,-0.028 -0.554,-0.045 -0.831,-0.061c-0.085,-0.006 -0.171,0.006 -0.256,0.014c-0.212,0.02 -0.425,0.028 -0.633,0.068c-0.354,0.067 -0.693,0.18 -1.008,0.364c-0.282,0.166 -0.519,0.38 -0.717,0.636c-0.219,0.283 -0.367,0.603 -0.473,0.945c-0.125,0.403 -0.184,0.817 -0.201,1.235c-0.014,0.367 -0.021,0.736 0.043,1.101c0.047,0.272 0.078,0.547 0.13,0.818c0.071,0.369 0.147,0.737 0.235,1.103c0.125,0.523 0.25,1.047 0.399,1.563c0.142,0.495 0.302,0.986 0.476,1.471c0.142,0.396 0.307,0.784 0.48,1.167c0.113,0.249 0.249,0.49 0.393,0.723c0.152,0.248 0.325,0.484 0.56,0.664c0.297,0.227 0.526,0.263 0.828,0.013c0.129,-0.107 0.238,-0.239 0.35,-0.364c0.179,-0.2 0.351,-0.405 0.528,-0.606c0.227,-0.255 0.456,-0.507 0.683,-0.761c0.048,-0.054 0.094,-0.109 0.141,-0.164l-0.077,-0.068c-0.283,-0.271 -0.502,-0.586 -0.654,-0.947Zm8.578,-7.601c0.184,0.217 0.363,0.44 0.528,0.672c0.32,0.449 0.575,0.934 0.763,1.452c0.083,0.228 0.15,0.459 0.12,0.709c-0.02,0.175 -0.019,0.353 -0.034,0.529c-0.013,0.147 -0.036,0.292 -0.055,0.438c-0.029,0.22 -0.07,0.44 -0.082,0.661c-0.012,0.211 0,0.423 0.014,0.634c0.013,0.214 0.042,0.428 0.061,0.642c0.023,0.242 0.053,0.485 0.059,0.728c0.006,0.199 -0.012,0.4 -0.029,0.599c-0.021,0.24 -0.082,0.473 -0.172,0.696c-0.064,0.156 -0.14,0.309 -0.213,0.466l0.029,0.03l0.044,0.034l0.045,-0.079c0.373,-0.589 0.706,-1.201 0.994,-1.836c0.185,-0.409 0.358,-0.824 0.525,-1.241c0.259,-0.649 0.465,-1.317 0.623,-1.998c0.072,-0.305 0.126,-0.616 0.175,-0.926c0.037,-0.242 0.069,-0.488 0.076,-0.733c0.007,-0.259 -0.007,-0.521 -0.031,-0.78c-0.018,-0.196 -0.066,-0.392 -0.189,-0.551c-0.197,-0.256 -0.409,-0.501 -0.671,-0.695c-0.22,-0.163 -0.439,-0.33 -0.676,-0.467c-0.374,-0.218 -0.78,-0.362 -1.204,-0.461c-0.413,-0.096 -0.832,-0.138 -1.254,-0.147c-0.248,-0.005 -0.498,0.022 -0.746,0.045c-0.225,0.021 -0.448,0.057 -0.675,0.087c0.243,0.136 0.483,0.258 0.709,0.401c0.475,0.301 0.9,0.663 1.266,1.091Zm-6.172,8.424c0.154,-0.491 0.363,-0.96 0.566,-1.431c0.164,-0.383 0.254,-0.786 0.284,-1.2c0.014,-0.204 0.01,-0.41 0,-0.615c-0.011,-0.227 -0.029,-0.455 -0.062,-0.68c-0.043,-0.288 -0.091,-0.576 -0.159,-0.859c-0.074,-0.305 -0.26,-0.518 -0.579,-0.596c-0.195,-0.048 -0.388,-0.046 -0.584,-0.015c-0.48,0.075 -0.919,0.252 -1.328,0.511c-0.082,0.052 -0.127,0.094 -0.113,0.212c0.03,0.25 0.037,0.504 0.036,0.756c-0.002,0.358 -0.017,0.715 -0.031,1.072c-0.004,0.116 -0.021,0.232 -0.034,0.348c-0.019,0.177 -0.056,0.354 -0.055,0.531c0.002,0.183 0.02,0.37 0.065,0.546c0.14,0.561 0.438,1.019 0.926,1.343c0.3,0.199 0.632,0.299 0.997,0.318c0.025,-0.084 0.047,-0.163 0.071,-0.241Zm-0.573,-4.807c-0.064,-0.135 -0.027,-0.247 0.122,-0.298c0.036,-0.013 0.073,-0.027 0.111,-0.03c0.052,-0.006 0.105,-0.002 0.157,-0.002c0.189,0.001 0.371,0.028 0.527,0.148c0.1,0.077 0.126,0.179 0.062,0.284c-0.092,0.149 -0.232,0.224 -0.404,0.238c-0.272,0.023 -0.462,-0.104 -0.575,-0.34Zm7.516,-0.049c0.022,-0.18 0.039,-0.36 0.062,-0.54c0.008,-0.072 -0.03,-0.091 -0.09,-0.093c-0.191,-0.005 -0.381,-0.012 -0.571,-0.016c-0.215,-0.003 -0.424,0.031 -0.623,0.113c-0.22,0.091 -0.388,0.236 -0.457,0.476c-0.051,0.179 -0.065,0.358 -0.047,0.545c0.028,0.285 0.091,0.562 0.191,0.827c0.133,0.355 0.273,0.709 0.439,1.049c0.226,0.461 0.481,0.906 0.721,1.36c0.064,0.12 0.118,0.247 0.185,0.388c0.14,-0.296 0.208,-0.593 0.216,-0.898c0.006,-0.258 -0.014,-0.516 -0.029,-0.773c-0.01,-0.158 -0.032,-0.314 -0.047,-0.472c-0.022,-0.219 -0.054,-0.438 -0.059,-0.657c-0.005,-0.223 0.011,-0.448 0.03,-0.671c0.018,-0.213 0.053,-0.425 0.079,-0.638Zm-0.429,-0.173c-0.071,0.195 -0.223,0.305 -0.419,0.338c-0.183,0.03 -0.343,-0.038 -0.462,-0.184c-0.085,-0.103 -0.053,-0.226 0.075,-0.297c0.146,-0.08 0.306,-0.101 0.496,-0.113c0.051,0.009 0.128,0.017 0.202,0.038c0.107,0.03 0.147,0.111 0.108,0.218Zm-5.66,6.017c-0.105,-0.086 -0.243,-0.091 -0.343,0.003c-0.123,0.117 -0.232,0.25 -0.34,0.382c-0.126,0.152 -0.243,0.31 -0.405,0.428c-0.236,0.171 -0.51,0.242 -0.786,0.309c-0.22,0.053 -0.44,0.103 -0.66,0.154l-0.003,0.028c0.066,0.03 0.129,0.068 0.197,0.09c0.336,0.106 0.677,0.159 1.031,0.129c0.256,-0.022 0.5,-0.078 0.731,-0.187c0.318,-0.151 0.563,-0.39 0.771,-0.667c0.035,-0.047 0.05,-0.115 0.055,-0.175c0.014,-0.211 -0.093,-0.368 -0.248,-0.494Zm8.268,0.084c-0.27,0.029 -0.54,0.06 -0.811,0.075c-0.13,0.008 -0.263,-0.017 -0.395,-0.028c-0.221,-0.018 -0.437,-0.067 -0.624,-0.185c-0.109,-0.069 -0.199,-0.076 -0.314,-0.038c-0.164,0.056 -0.298,0.14 -0.338,0.318c-0.027,0.12 -0.036,0.245 -0.047,0.368c-0.002,0.022 0.025,0.061 0.046,0.067c0.126,0.033 0.254,0.073 0.383,0.084c0.159,0.015 0.321,0.01 0.482,0.002c0.173,-0.008 0.347,-0.02 0.517,-0.048c0.402,-0.068 0.791,-0.178 1.136,-0.406c0.125,-0.082 0.248,-0.166 0.372,-0.249l-0.011,-0.018c-0.132,0.02 -0.263,0.044 -0.396,0.058Z" style="fill:#fff;"/></g></svg>