<?xml version="1.0" encoding="UTF-8" standalone="no"?><!DOCTYPE svg PUBLIC "-//W3C//DTD SVG 1.1//EN" "http://www.w3.org/Graphics/SVG/1.1/DTD/svg11.dtd"><svg width="100%" height="100%" viewBox="0 0 115 32" version="1.1" xmlns="http://www.w3.org/2000/svg" xmlns:xlink="http://www.w3.org/1999/xlink" xml:space="preserve" xmlns:serif="http://www.serif.com/" style="fill-rule:evenodd;clip-rule:evenodd;stroke-linejoin:round;stroke-miterlimit:2;"><rect id="Power-BI" serif:id="Power BI" x="0" y="0" width="114.964" height="32" style="fill:none;"/><clipPath id="_clip1"><rect x="0" y="0" width="114.964" height="32"/></clipPath><g clip-path="url(#_clip1)"><path d="M114.964,3.2c0,-1.766 -1.433,-3.2 -3.2,-3.2l-108.564,0c-1.766,0 -3.2,1.434 -3.2,3.2l-0,25.6c-0,1.766 1.434,3.2 3.2,3.2l108.564,0c1.767,0 3.2,-1.434 3.2,-3.2l0,-25.6Z" style="fill:#eab710;"/><text x="37.544px" y="22.25px" style="font-family:'GoogleSansText-Bold', 'Google Sans Text', sans-serif;font-weight:700;font-size:17.63px;fill:#fff;">P<tspan x="47.61px 57.465px 70.723px 80.331px 86.978px 90.697px 101.787px " y="22.25px 22.25px 22.25px 22.25px 22.25px 22.25px 22.25px ">ower BI</tspan></text><clipPath id="_clip2"><rect id="microsoft_powerbi_logo_icon_170953.svg" x="8.824" y="6.12" width="19.757" height="19.757"/></clipPath><g clip-path="url(#_clip2)"><path d="M9.989,22.089c-0.643,-0 -1.165,-0.523 -1.165,-1.168l-0,-3.288c-0,-0.645 0.523,-1.167 1.165,-1.167c0.639,0.002 1.164,0.528 1.166,1.167l-0,3.289c-0,0.645 -0.523,1.167 -1.166,1.167l-0,-0Zm3.75,1.261c-0.644,-0 -1.165,-0.523 -1.165,-1.168l0,-5.808c0,-0.645 0.521,-1.167 1.165,-1.167c0.644,-0 1.166,0.523 1.166,1.167l-0,5.808c-0,0.646 -0.523,1.168 -1.166,1.168Zm3.75,1.233c-0.643,-0 -1.165,-0.523 -1.165,-1.168l0,-8.28c0,-0.646 0.523,-1.168 1.165,-1.168c0.643,0 1.165,0.523 1.165,1.168l0,8.279c0,0.645 -0.521,1.167 -1.165,1.167l0,0.002Zm9.832,-13.525l-16.264,-4.875c-0.798,-0.249 -1.518,0.249 -1.518,1.023l0,8.137c0.148,-0.03 0.299,-0.045 0.451,-0.045c0.151,0 0.302,0.015 0.451,0.045l0,-8.131c0,-0.055 0,-0.183 0.199,-0.183c0.054,0.001 0.108,0.009 0.159,0.026l16.265,4.875c0.354,0.107 0.616,0.467 0.616,0.718l-0,10.43c-0,0.059 -0,0.18 -0.199,0.18c-0.054,0 -0.108,-0.008 -0.159,-0.025l-3.752,-1.123l0,0.942l3.485,1.048c0.135,0.041 0.276,0.062 0.417,0.064c0.016,0 0.032,0.001 0.048,0.001c0.578,-0 1.054,-0.476 1.054,-1.054c-0,-0.011 -0,-0.023 -0.001,-0.034l0,-10.439c0,-0.676 -0.553,-1.371 -1.261,-1.583l0.009,0.003Zm-6.081,14.819c-0.644,-0 -1.165,-0.523 -1.165,-1.167l-0,-10.867c-0,-0.645 0.522,-1.168 1.165,-1.168c0.642,-0 1.165,0.522 1.165,1.168l-0,10.876c-0,0.645 -0.521,1.167 -1.165,1.167l-0,-0.009Z" style="fill:#fff;fill-rule:nonzero;"/></g></g></svg>