<?xml version="1.0" encoding="UTF-8" standalone="no"?><!DOCTYPE svg PUBLIC "-//W3C//DTD SVG 1.1//EN" "http://www.w3.org/Graphics/SVG/1.1/DTD/svg11.dtd"><svg width="100%" height="100%" viewBox="0 0 107 32" version="1.1" xmlns="http://www.w3.org/2000/svg" xmlns:xlink="http://www.w3.org/1999/xlink" xml:space="preserve" xmlns:serif="http://www.serif.com/" style="fill-rule:evenodd;clip-rule:evenodd;stroke-linejoin:round;stroke-miterlimit:2;"><rect id="Python" x="0" y="0" width="106.162" height="32" style="fill:none;"/><clipPath id="_clip1"><rect x="0" y="0" width="106.162" height="32"/></clipPath><g clip-path="url(#_clip1)"><path d="M106.162,3.2c0,-1.766 -1.434,-3.2 -3.2,-3.2l-99.762,0c-1.766,0 -3.2,1.434 -3.2,3.2l-0,25.6c-0,1.766 1.434,3.2 3.2,3.2l99.762,0c1.766,0 3.2,-1.434 3.2,-3.2l0,-25.6Z" style="fill:#377ef0;"/><text x="39.586px" y="22.25px" style="font-family:'GoogleSansText-Bold', 'Google Sans Text', sans-serif;font-weight:700;font-size:17.63px;fill:#fff;">P<tspan x="50.27px 59.966px 66.577px 76.767px 86.622px " y="22.25px 22.25px 22.25px 22.25px 22.25px ">ython</tspan></text><g><path d="M14.266,8.576c-0,-1.381 0.379,-2.131 2.469,-2.489c1.419,-0.243 3.238,-0.274 4.935,0c1.341,0.216 2.469,1.193 2.469,2.489l0,4.553c0,1.336 -1.095,2.43 -2.469,2.43l-4.935,-0c-1.675,-0 -3.087,1.396 -3.087,2.975l-0,2.185l-1.697,-0c-1.436,-0 -2.272,-1.012 -2.623,-2.428c-0.473,-1.903 -0.453,-3.036 0,-4.858c0.394,-1.589 1.65,-2.428 3.085,-2.428l6.79,0l0,-0.608l-4.937,0l-0,-1.821l-0,-0Z" style="fill:#fff;fill-rule:nonzero;"/><path d="M24.139,23.148c0,1.381 -1.225,2.08 -2.469,2.428c-1.87,0.526 -3.372,0.446 -4.935,0c-1.306,-0.371 -2.469,-1.131 -2.469,-2.428l0,-4.553c0,-1.311 1.117,-2.43 2.469,-2.43l4.935,0c1.644,0 3.087,-1.389 3.087,-3.036l0,-2.124l1.851,0c1.437,0 2.114,1.044 2.469,2.428c0.493,1.922 0.515,3.36 -0,4.858c-0.5,1.455 -1.034,2.428 -2.469,2.428l-7.405,-0l0,0.608l4.936,-0l0,1.822l0,-0.001Z" style="fill:#fff;fill-rule:nonzero;"/><path d="M15.5,8.274c0,-0.505 0.414,-0.912 0.926,-0.912c0.51,-0 0.925,0.407 0.925,0.912c0,0.502 -0.415,0.91 -0.925,0.91c-0.512,-0 -0.926,-0.408 -0.926,-0.91Zm5.554,15.177c-0,-0.503 0.415,-0.91 0.925,-0.91c0.512,-0 0.926,0.407 0.926,0.91c-0,0.504 -0.414,0.912 -0.926,0.912c-0.51,-0 -0.925,-0.408 -0.925,-0.912Z" style="fill:#377ef0;fill-rule:nonzero;"/></g></g></svg>