<?xml version="1.0" encoding="UTF-8" standalone="no"?><!DOCTYPE svg PUBLIC "-//W3C//DTD SVG 1.1//EN" "http://www.w3.org/Graphics/SVG/1.1/DTD/svg11.dtd"><svg width="100%" height="100%" viewBox="0 0 116 32" version="1.1" xmlns="http://www.w3.org/2000/svg" xmlns:xlink="http://www.w3.org/1999/xlink" xml:space="preserve" xmlns:serif="http://www.serif.com/" style="fill-rule:evenodd;clip-rule:evenodd;stroke-linejoin:round;stroke-miterlimit:2;"><rect id="SAS-Viya" serif:id="SAS Viya" x="0" y="0" width="115.413" height="32" style="fill:none;"/><path d="M115.413,3.2c0,-1.766 -1.433,-3.2 -3.2,-3.2l-109.013,0c-1.766,0 -3.2,1.434 -3.2,3.2l0,25.6c0,1.766 1.434,3.2 3.2,3.2l109.013,0c1.767,0 3.2,-1.434 3.2,-3.2l0,-25.6Z" style="fill:#007cc2;"/><text x="35.392px" y="22.25px" style="font-family:'GoogleSansText-Bold', 'Google Sans Text', sans-serif;font-weight:700;font-size:17.63px;fill:#fff;">S<tspan x="45.546px 57.164px 67.495px 70.51px 81.194px 85.301px 94.557px " y="22.25px 22.25px 22.25px 22.25px 22.25px 22.25px 22.25px ">AS Viya</tspan></text><path d="M18.314,4.855c-0.772,-0.017 -1.564,0.071 -2.377,0.275c-3.761,0.938 -7.968,5.779 -3.375,11.359l2.744,3.323l0.772,0.945c0.523,0.618 1.37,0.607 1.996,0.091c0.626,-0.515 0.808,-1.367 0.289,-1.996l-0.314,-0.38l0.014,-0l-0.447,-0.552l-2.123,-2.572c-1.996,-2.426 -1.103,-5.415 1.599,-7.113c2.385,-1.497 6.763,-0.965 8.271,1.497c-0.951,-2.785 -3.719,-4.803 -7.049,-4.877Zm0.551,5.856c-0.38,-0.003 -0.749,0.132 -1.037,0.38c-0.628,0.518 -0.805,1.368 -0.289,1.996c0.056,0.07 0.113,0.14 0.171,0.21l2.771,3.347c1.996,2.426 1.102,5.404 -1.599,7.102c-2.385,1.497 -6.763,0.965 -8.272,-1.497c1.169,3.452 5.09,5.707 9.429,4.621c3.764,-0.938 7.968,-5.763 3.375,-11.346l-3.217,-3.859l-0.367,-0.461c-0.237,-0.288 -0.587,-0.46 -0.959,-0.471l-0.006,-0.022Z" style="fill:#fff;fill-rule:nonzero;"/></svg>