<?xml version="1.0" encoding="UTF-8" standalone="no"?><!DOCTYPE svg PUBLIC "-//W3C//DTD SVG 1.1//EN" "http://www.w3.org/Graphics/SVG/1.1/DTD/svg11.dtd"><svg width="100%" height="100%" viewBox="0 0 140 32" version="1.1" xmlns="http://www.w3.org/2000/svg" xmlns:xlink="http://www.w3.org/1999/xlink" xml:space="preserve" xmlns:serif="http://www.serif.com/" style="fill-rule:evenodd;clip-rule:evenodd;stroke-linejoin:round;stroke-miterlimit:2;"><rect id="Visual-Code" serif:id="Visual Code" x="0" y="0" width="139.638" height="32" style="fill:none;"/><clipPath id="_clip1"><rect x="0" y="0" width="139.638" height="32"/></clipPath><g clip-path="url(#_clip1)"><path d="M139.638,3.2c0,-1.766 -1.433,-3.2 -3.2,-3.2l-133.238,0c-1.766,0 -3.2,1.434 -3.2,3.2l-0,25.6c-0,1.766 1.434,3.2 3.2,3.2l133.238,0c1.767,0 3.2,-1.434 3.2,-3.2l0,-25.6Z" style="fill:#0097e0;"/><text x="37.544px" y="22.25px" style="font-family:'GoogleSansText-Bold', 'Google Sans Text', sans-serif;font-weight:700;font-size:17.63px;fill:#fff;">V<tspan x="48.228px 52.335px 60.797px 70.723px 80.402px 84.527px 87.894px 99.935px 109.967px 120.298px " y="22.25px 22.25px 22.25px 22.25px 22.25px 22.25px 22.25px 22.25px 22.25px 22.25px ">isual Code</tspan></text><clipPath id="_clip2"><rect id="visual_studio_code_logo_icon_144754.svg" x="8.95" y="5.774" width="20.451" height="20.451"/></clipPath><g clip-path="url(#_clip2)"><path d="M28.676,7.978l-4.207,-2.024c-0.49,-0.236 -1.072,-0.137 -1.455,0.246l-8.058,7.353l-3.512,-2.663c-0.326,-0.25 -0.786,-0.23 -1.089,0.046l-1.124,1.026c-0.373,0.336 -0.373,0.922 -0.004,1.258l3.046,2.779l-3.046,2.78c-0.369,0.336 -0.369,0.922 0.004,1.258l1.124,1.025c0.306,0.276 0.763,0.297 1.089,0.047l3.512,-2.666l8.062,7.356c0.379,0.382 0.962,0.482 1.451,0.246l4.211,-2.028c0.443,-0.212 0.722,-0.658 0.722,-1.151l0,-13.738c0,-0.489 -0.283,-0.938 -0.725,-1.151l-0.001,0.001Zm-4.385,12.666l-6.118,-4.644l6.118,-4.644l0,9.288Z" style="fill:#fff;fill-rule:nonzero;"/></g></g></svg>